<svg width="104" height="30" viewBox="0 0 104 30" fill="none" xmlns="http://www.w3.org/2000/svg">
<path fill-rule="evenodd" clip-rule="evenodd" d="M96.3789 8.59258V22.2495H100.173V8.59258H96.3789ZM96.8331 6.27197C97.2369 6.6454 97.7208 6.83212 98.2848 6.83212C98.8489 6.83212 99.3298 6.6454 99.7277 6.27197C100.131 5.89261 100.333 5.43916 100.333 4.91161C100.333 4.39 100.131 3.94247 99.7277 3.56904C99.3298 3.18968 98.8489 3 98.2848 3C97.7208 3 97.2369 3.18968 96.8331 3.56904C96.4353 3.94247 96.2364 4.39 96.2364 4.91161C96.2364 5.43916 96.4353 5.89261 96.8331 6.27197ZM16.167 22.2495V8.59258H19.8453V10.9754H19.9878C20.2372 10.1278 20.6558 9.48763 21.2436 9.05493C21.8314 8.61629 22.5083 8.39698 23.2742 8.39698C23.4642 8.39698 23.6691 8.40883 23.8887 8.43254C24.1084 8.45625 24.3014 8.48885 24.4677 8.53034V11.8912C24.2895 11.8379 24.0431 11.7905 23.7284 11.749C23.4137 11.7075 23.1258 11.6867 22.8645 11.6867C22.3064 11.6867 21.8077 11.8082 21.3683 12.0513C20.9348 12.2884 20.5905 12.6203 20.3352 13.0471C20.0858 13.4739 19.9611 13.9658 19.9611 14.523V22.2495H16.167ZM31.9734 22.5162C30.59 22.5162 29.3935 22.2228 28.3842 21.636C27.3807 21.0433 26.6059 20.2193 26.0596 19.1643C25.5134 18.1032 25.2403 16.8733 25.2403 15.4744C25.2403 14.0637 25.5134 12.8307 26.0596 11.7756C26.6059 10.7146 27.3807 9.8907 28.3842 9.30388C29.3935 8.71113 30.59 8.41476 31.9734 8.41476C33.3568 8.41476 34.5503 8.71113 35.5537 9.30388C36.5631 9.8907 37.3409 10.7146 37.8871 11.7756C38.4334 12.8307 38.7065 14.0637 38.7065 15.4744C38.7065 16.8733 38.4334 18.1032 37.8871 19.1643C37.3409 20.2193 36.5631 21.0433 35.5537 21.636C34.5503 22.2228 33.3568 22.5162 31.9734 22.5162ZM31.9912 19.5821C32.6206 19.5821 33.146 19.4043 33.5676 19.0487C33.9892 18.6871 34.3068 18.1951 34.5206 17.5727C34.7403 16.9503 34.8501 16.242 34.8501 15.4477C34.8501 14.6534 34.7403 13.9451 34.5206 13.3227C34.3068 12.7003 33.9892 12.2084 33.5676 11.8468C33.146 11.4852 32.6206 11.3044 31.9912 11.3044C31.3559 11.3044 30.8215 11.4852 30.3881 11.8468C29.9606 12.2084 29.637 12.7003 29.4173 13.3227C29.2035 13.9451 29.0967 14.6534 29.0967 15.4477C29.0967 16.242 29.2035 16.9503 29.4173 17.5727C29.637 18.1951 29.9606 18.6871 30.3881 19.0487C30.8215 19.4043 31.3559 19.5821 31.9912 19.5821ZM49.0823 12.7003L52.5557 12.4869C52.3895 11.2303 51.8076 10.2375 50.8101 9.50838C49.8185 8.7793 48.4589 8.41476 46.731 8.41476C45.5613 8.41476 44.5401 8.58666 43.6673 8.93045C42.8004 9.27424 42.1265 9.76326 41.6456 10.3975C41.1706 11.0317 40.9331 11.7875 40.9331 12.6648C40.9331 13.6843 41.2567 14.523 41.9039 15.181C42.557 15.8389 43.5515 16.3013 44.8874 16.568L47.2565 17.0393C47.8503 17.1578 48.2896 17.3297 48.5746 17.5549C48.8596 17.7743 49.0051 18.0558 49.011 18.3996C49.0051 18.8086 48.7973 19.1435 48.3876 19.4043C47.9839 19.6592 47.4495 19.7866 46.7845 19.7866C46.1076 19.7866 45.5524 19.6444 45.119 19.3599C44.6856 19.0694 44.4124 18.6486 44.2996 18.0973L40.5679 18.2929C40.752 19.597 41.3784 20.6283 42.4471 21.3871C43.5218 22.1399 44.9646 22.5162 46.7756 22.5162C47.9631 22.5162 49.011 22.3295 49.9195 21.9561C50.8339 21.5767 51.5523 21.0492 52.0748 20.3735C52.6032 19.6977 52.8675 18.9123 52.8675 18.0173C52.8675 17.0333 52.5409 16.239 51.8878 15.6344C51.2346 15.0298 50.2431 14.5912 48.9131 14.3185L46.4371 13.8206C45.8018 13.6843 45.3535 13.5035 45.0923 13.2783C44.831 13.053 44.7004 12.7774 44.7004 12.4514C44.7004 12.0424 44.9023 11.7164 45.306 11.4733C45.7098 11.2244 46.2056 11.0999 46.7934 11.0999C47.2328 11.0999 47.6098 11.174 47.9245 11.3222C48.2451 11.4645 48.5034 11.6571 48.6993 11.9001C48.8953 12.1372 49.0229 12.404 49.0823 12.7003ZM55.2565 27.3709V8.59258H58.9972V10.8865H59.1664C59.3326 10.519 59.5731 10.1456 59.8878 9.76623C60.2084 9.38094 60.624 9.06086 61.1347 8.80597C61.6512 8.54516 62.2925 8.41476 63.0584 8.41476C64.0559 8.41476 64.9762 8.67557 65.8193 9.19719C66.6625 9.71288 67.3364 10.4923 67.8411 11.5356C68.3458 12.5729 68.5981 13.874 68.5981 15.4388C68.5981 16.9622 68.3517 18.2485 67.8589 19.2976C67.372 20.3409 66.707 21.1322 65.8639 21.6716C65.0267 22.2051 64.0886 22.4718 63.0495 22.4718C62.3133 22.4718 61.6869 22.3503 61.1703 22.1073C60.6597 21.8642 60.2411 21.559 59.9145 21.1915C59.5879 20.818 59.3386 20.4416 59.1664 20.0623H59.0506V27.3709H55.2565ZM58.9704 15.421C58.9704 16.2331 59.0833 16.9415 59.3089 17.5461C59.5345 18.1507 59.8611 18.6219 60.2886 18.9598C60.7161 19.2917 61.2356 19.4577 61.8472 19.4577C62.4647 19.4577 62.9872 19.2887 63.4147 18.9509C63.8422 18.6071 64.1658 18.1329 64.3854 17.5283C64.6111 16.9177 64.7239 16.2153 64.7239 15.421C64.7239 14.6327 64.614 13.9392 64.3944 13.3405C64.1747 12.7418 63.8511 12.2736 63.4236 11.9357C62.9961 11.5978 62.4706 11.4289 61.8472 11.4289C61.2297 11.4289 60.7072 11.5919 60.2797 11.9179C59.8581 12.2439 59.5345 12.7063 59.3089 13.3049C59.0833 13.9036 58.9704 14.609 58.9704 15.421ZM73.7281 21.6627C74.7434 22.2317 75.9547 22.5162 77.3618 22.5162C78.49 22.5162 79.4845 22.3444 80.3454 22.0006C81.2123 21.6508 81.9189 21.1648 82.4651 20.5424C83.0173 19.9141 83.3825 19.1791 83.5606 18.3374L80.0515 18.1062C79.9209 18.45 79.7309 18.7404 79.4815 18.9775C79.2322 19.2146 78.9323 19.3925 78.582 19.511C78.2317 19.6296 77.8457 19.6888 77.4242 19.6888C76.7889 19.6888 76.2397 19.5555 75.7765 19.2887C75.3134 19.022 74.9542 18.6426 74.6989 18.1507C74.4495 17.6587 74.3248 17.0748 74.3248 16.3991V16.3902H83.6407V15.3499C83.6407 14.1881 83.4775 13.1745 83.1509 12.3091C82.8243 11.4378 82.3671 10.7146 81.7793 10.1397C81.1975 9.56469 80.5146 9.13495 79.7309 8.85043C78.9531 8.55998 78.1129 8.41476 77.2104 8.41476C75.8686 8.41476 74.6989 8.71113 73.7014 9.30388C72.7098 9.89663 71.9409 10.7235 71.3947 11.7845C70.8484 12.8456 70.5753 14.0785 70.5753 15.4833C70.5753 16.9237 70.8484 18.1714 71.3947 19.2265C71.9409 20.2757 72.7187 21.0877 73.7281 21.6627ZM74.3284 14.0429C74.3513 13.5525 74.4777 13.105 74.7078 12.7003C74.9572 12.2558 75.3015 11.9031 75.7409 11.6423C76.1862 11.3755 76.6968 11.2422 77.2728 11.2422C77.825 11.2422 78.3089 11.3637 78.7245 11.6067C79.1461 11.8438 79.4756 12.1728 79.7131 12.5936C79.9506 13.0145 80.0693 13.4976 80.0693 14.0429H74.3284ZM86.1167 22.2495V8.59258H89.795V10.9754H89.9375C90.1868 10.1278 90.6054 9.48763 91.1932 9.05493C91.7811 8.61629 92.4579 8.39698 93.2239 8.39698C93.4139 8.39698 93.6187 8.40883 93.8384 8.43254C94.0581 8.45625 94.2511 8.48885 94.4173 8.53034V11.8912C94.2392 11.8379 93.9928 11.7905 93.6781 11.749C93.3634 11.7075 93.0754 11.6867 92.8142 11.6867C92.2561 11.6867 91.7573 11.8082 91.3179 12.0513C90.8845 12.2884 90.5401 12.6203 90.2848 13.0471C90.0354 13.4739 89.9107 13.9658 89.9107 14.523V22.2495H86.1167ZM7.19625 4.05949H0V12.0253C0 9.56909 1.91039 8.26135 3.8564 8.26135H6.07388V6.62166L10.1259 10.23L6.07388 13.7206L6.05607 12.0253H3.83859C1.80426 12.0253 0 14.2503 0 16.365V22.2687H3.8564V16.365H7.09828C8.49953 16.365 9.69296 16.1071 10.6786 15.5914C11.6702 15.0757 12.4272 14.3555 12.9497 13.4309C13.4722 12.5062 13.7334 11.4392 13.7334 10.23C13.7334 9.0208 13.4752 7.95385 12.9586 7.02916C12.448 6.09855 11.7058 5.37243 10.732 4.85082C9.75828 4.32327 8.57968 4.05949 7.19625 4.05949Z" fill="url(#paint0_linear_1_152)"/>
<defs>
<linearGradient id="paint0_linear_1_152" x1="50.1666" y1="3" x2="50.1666" y2="27.3709" gradientUnits="userSpaceOnUse">
<stop stop-color="#786CFA"/>
<stop offset="1" stop-color="#1B4DF9"/>
</linearGradient>
</defs>
</svg>
